<?xml version="1.0" encoding="UTF-8" standalone="no"?>
<svg width="293px" height="38px" viewBox="0 0 293 38" version="1.1" xmlns="http://www.w3.org/2000/svg" xmlns:xlink="http://www.w3.org/1999/xlink" xmlns:sketch="http://www.bohemiancoding.com/sketch/ns">
    <!-- Generator: Sketch 3.1.1 (8761) - http://www.bohemiancoding.com/sketch -->
    <title>Slice 2</title>
    <desc>Created with Sketch.</desc>
    <defs></defs>
    <g id="Page-1" stroke="none" stroke-width="1" fill="none" fill-rule="evenodd" sketch:type="MSPage">
        <g id="logo2" sketch:type="MSLayerGroup" fill="#FFFFFF">
            <g id="Group-20" sketch:type="MSShapeGroup">
                <path d="M161.1553,33.1185 L161.1553,33.1185 C161.9683,32.3905 160.9363,31.5395 160.1303,32.3905 C157.6123,35.0395 152.8893,36.9425 148.6563,36.9425 C143.8523,36.9425 140.0843,34.8845 137.3563,30.7745 C135.1173,27.3865 133.9973,23.5075 133.9973,19.1185 C133.9973,13.4115 135.5643,8.8875 138.7023,5.5575 C141.3863,2.7055 144.5583,1.2715 148.2263,1.2715 C151.7783,1.2715 154.7683,2.4305 157.2043,4.6985 L157.2043,7.6705 L158.3373,7.6705 L158.3373,4.2375 C158.3413,4.2005 158.3383,4.1585 158.3373,4.1205 L158.3373,0.7295 L157.2043,0.7295 L157.2043,2.8215 C154.6793,0.9355 151.7663,0.3005 148.2883,0.3005 C143.1953,0.3005 138.8533,2.1435 135.2443,5.8235 C131.6503,9.5195 129.8423,13.9335 129.8423,19.1185 C129.8423,24.2875 131.6843,28.6865 135.3703,32.3265 C139.0473,35.9705 143.4393,37.7965 148.5293,37.7965 C153.4623,37.7965 157.6803,36.2425 161.1553,33.1185" id="Fill-2"></path>
                <path d="M81.5325,1.8613 L81.5325,1.8613 L86.1925,1.8613 C84.2365,16.3343 79.9175,36.1023 76.1515,36.1023 L74.2345,36.1023 L74.2345,37.6143 L76.1515,37.6143 C82.5275,37.6143 86.7665,8.9903 87.7215,1.8613 L93.0165,1.8613 L93.0165,36.2943 L88.0565,36.2943 L88.0565,37.4273 L101.4825,37.4273 L101.4825,36.2943 L97.4145,36.2943 L97.4145,1.8613 L101.4825,1.8613 L101.4825,0.7293 L81.5325,0.7293 L81.5325,1.8613 Z" id="Fill-4"></path>
                <path d="M167.6117,36.2818 L167.6117,36.2818 L167.6117,37.4148 L180.1267,37.4148 L180.1267,36.2818 L176.0037,36.2818 L176.0037,2.1768 L183.5187,2.1768 L183.5187,7.1728 L184.6517,7.1728 L184.6517,0.7308 L183.5187,0.7308 L183.5187,0.7658 L163.7287,0.7658 L163.7287,0.7308 L162.5977,0.7308 L162.5977,7.1728 L163.7287,7.1728 L163.7287,2.1768 L171.6107,2.1768 L171.6107,36.2818 L167.6117,36.2818 Z" id="Fill-6"></path>
                <path d="M127.3663,30.7208 L127.3663,30.7208 L126.2343,30.7208 L126.2343,36.2938 L115.1693,36.2938 L115.1693,15.3238 L119.5273,15.3238 L119.5273,18.9408 L120.6603,18.9408 L120.6603,10.7698 L119.5273,10.7698 L119.5273,14.1918 L115.1693,14.1918 L115.1693,1.8608 L125.1023,1.8608 L125.1023,7.6708 L126.2343,7.6708 L126.2343,1.0348 L126.1573,1.0348 L126.1573,0.7298 L106.7153,0.7298 L106.7153,1.8608 L110.7733,1.8608 L110.7733,36.2938 L106.7153,36.2938 L106.7153,37.4228 L127.3663,37.4228 L127.3663,30.7208 Z" id="Fill-8"></path>
                <path d="M236.2254,36.4157 C236.1264,36.4157 235.7674,36.4237 235.2864,36.4387 L235.2864,15.1387 C250.1594,15.1967 250.9004,36.4157 236.2254,36.4157 L236.2254,36.4157 Z M235.2864,1.8307 C235.5614,1.8337 240.8494,1.9667 242.2424,3.8907 C242.6054,4.3897 242.9334,4.9517 243.1564,5.6257 C243.3774,6.3037 243.4884,6.9787 243.4884,7.6857 C243.4884,8.4947 243.3994,9.2277 243.2164,9.8857 C243.0324,10.5357 242.7254,11.1247 242.2794,11.6547 C241.5594,12.5287 240.8124,13.1437 240.0324,13.5067 C238.9264,14.0177 237.3374,14.2757 235.2864,14.2857 L235.2864,1.8307 Z M240.1154,14.5837 C241.5654,14.0937 243.4124,13.4007 244.4214,12.5287 C246.0454,11.1607 246.8564,9.4897 246.8564,7.5177 C246.8564,5.4837 246.0304,3.8337 244.3204,2.6437 C241.5634,0.7307 235.0184,0.7307 235.0184,0.7307 L232.5324,0.7477 L232.5324,0.7307 L227.3304,0.7307 L227.3304,1.8617 L230.9964,1.8617 L230.9964,36.2817 L227.3304,36.2817 L227.3304,37.4147 L235.2864,37.4147 L235.2864,37.3797 C236.3204,37.3587 237.2164,37.3427 237.5174,37.3427 C244.7904,37.3427 250.6214,33.9477 250.6214,26.0097 C250.6214,18.8667 244.1224,15.3237 240.1154,14.5837 L240.1154,14.5837 Z" id="Fill-10"></path>
                <path d="M70.2437,30.7208 L70.2437,30.7208 L69.1117,30.7208 L69.1117,36.2938 L58.0477,36.2938 L58.0477,15.3238 L62.4047,15.3238 L62.4047,18.9408 L63.5357,18.9408 L63.5357,10.7698 L62.4047,10.7698 L62.4047,14.1918 L58.0477,14.1918 L58.0477,1.8608 L67.9787,1.8608 L67.9787,7.6708 L69.1117,7.6708 L69.1117,1.0348 L69.0187,1.0348 L69.0187,0.7298 L49.3687,0.7298 L49.3687,1.8608 L53.6517,1.8608 L53.6517,36.2938 L49.3687,36.2938 L49.3687,37.4228 L70.2437,37.4228 L70.2437,30.7208 Z" id="Fill-12"></path>
                <path d="M46.3053,36.294 L46.3053,36.294 L42.1623,36.294 L42.1623,1.861 L46.3053,1.861 L46.3053,0.73 L33.6243,0.73 L33.6243,1.861 L37.7673,1.861 L37.7673,36.294 L25.6003,36.294 L25.6003,1.861 L28.3263,1.861 L28.3263,0.73 L18.4763,0.73 L18.4763,1.861 L21.2053,1.861 L21.2053,36.294 L9.0373,36.294 L9.0373,1.861 L13.1763,1.861 L13.1763,0.73 L0.4973,0.73 L0.4973,1.861 L4.6403,1.861 L4.6403,36.294 L0.4973,36.294 L0.4973,37.423 L46.3053,37.423 L46.3053,36.294 Z" id="Fill-14"></path>
                <path d="M285.2784,31.6349 C282.6314,35.1609 279.0844,36.9419 274.6524,36.9419 C269.8484,36.9419 266.0784,34.8849 263.3504,30.7749 C261.1144,27.3869 259.9934,23.5069 259.9934,19.1159 C259.9934,13.4109 261.5684,8.8869 264.6964,5.5559 C267.3804,2.7049 270.5624,1.2709 274.2224,1.2709 C278.6264,1.2709 282.1664,3.0119 284.8534,6.4719 C287.5354,9.9359 288.8814,14.3709 288.8814,19.7829 C288.8814,24.4609 287.6864,28.4139 285.2784,31.6349 M287.8394,5.7969 C284.0914,2.1349 279.5834,0.3009 274.2904,0.3009 C269.1904,0.3009 264.8464,2.1439 261.2504,5.8239 C257.6454,9.5199 255.8464,13.9329 255.8464,19.1159 C255.8464,24.2869 257.6864,28.6859 261.3744,32.3259 C265.0484,35.9699 269.4334,37.7959 274.5264,37.7959 C279.8664,37.7959 284.3554,35.9699 287.9954,32.3259 C291.6394,28.6859 293.4574,24.2539 293.4574,19.0459 C293.4574,13.8719 291.5904,9.4529 287.8394,5.7969" id="Fill-16"></path>
                <path d="M214.8571,31.6349 C212.2141,35.1609 208.6711,36.9419 204.2371,36.9419 C199.4311,36.9419 195.6631,34.8849 192.9371,30.7749 C190.6991,27.3869 189.5811,23.5069 189.5811,19.1159 C189.5811,13.4109 191.1441,8.8869 194.2831,5.5579 C196.9671,2.7049 200.1391,1.2709 203.8091,1.2709 C208.2011,1.2709 211.7511,3.0119 214.4381,6.4719 C217.1201,9.9359 218.4661,14.3709 218.4661,19.7829 C218.4661,24.4609 217.2711,28.4139 214.8571,31.6349 M217.4201,5.7969 C213.6811,2.1349 209.1621,0.3009 203.8671,0.3009 C198.7771,0.3009 194.4361,2.1439 190.8251,5.8239 C187.2301,9.5199 185.4251,13.9329 185.4251,19.1159 C185.4251,24.2869 187.2651,28.6859 190.9511,32.3259 C194.6271,35.9699 199.0201,37.7959 204.1091,37.7959 C209.4471,37.7959 213.9391,35.9699 217.5741,32.3259 C221.2141,28.6859 223.0451,24.2539 223.0451,19.0459 C223.0451,13.8719 221.1751,9.4529 217.4201,5.7969" id="Fill-18"></path>
            </g>
        </g>
    </g>
</svg>