<?xml version="1.0" encoding="utf-8"?>
<!-- Generator: Adobe Illustrator 16.0.0, SVG Export Plug-In . SVG Version: 6.00 Build 0)  -->
<!DOCTYPE svg PUBLIC "-//W3C//DTD SVG 1.1//EN" "http://www.w3.org/Graphics/SVG/1.1/DTD/svg11.dtd">
<svg version="1.1" id="Layer_1" xmlns="http://www.w3.org/2000/svg" xmlns:xlink="http://www.w3.org/1999/xlink" x="0px" y="0px"
	 width="60px" height="60px" viewBox="0 0 60 60" enable-background="new 0 0 60 60" xml:space="preserve">
<path fill="#FFFFFF" d="M30,0C13.432,0,0,13.432,0,30.001C0,46.57,13.432,60,30,60s30-13.43,30-29.999C60,13.432,46.568,0,30,0z
	 M29.945,56.015c-14.397,0-26.069-11.671-26.069-26.069c0-14.397,11.672-26.069,26.069-26.069s26.069,11.672,26.069,26.069
	C56.015,44.343,44.343,56.015,29.945,56.015z"/>
<path fill="#FFFFFF" d="M47.531,30.043c0-2.339-0.948-4.458-2.481-5.99c-1.533-1.534-3.651-2.482-5.99-2.482
	c-1.68,0-3.246,0.489-4.563,1.332v-5.196h-3.91v12.333v0.002c0,2.34,0.948,4.458,2.481,5.991s3.651,2.481,5.991,2.481
	c2.339,0,4.457-0.948,5.99-2.481S47.531,32.383,47.531,30.043 M43.621,30.043c0,1.26-0.511,2.401-1.336,3.226
	c-0.825,0.826-1.966,1.336-3.226,1.336c-1.261,0-2.4-0.51-3.227-1.336c-0.825-0.825-1.336-1.966-1.336-3.226
	c0-1.26,0.511-2.4,1.336-3.226c0.826-0.826,1.966-1.336,3.227-1.336c1.26,0,2.4,0.511,3.226,1.336
	C43.11,27.643,43.621,28.783,43.621,30.043 M25.448,42.124h3.91V29.788c0-2.339-0.948-4.458-2.482-5.991
	c-1.533-1.534-3.65-2.481-5.99-2.481s-4.458,0.948-5.99,2.481c-1.534,1.533-2.482,3.651-2.482,5.991s0.948,4.458,2.482,5.991
	c1.532,1.534,3.65,2.482,5.99,2.482c1.68,0,3.245-0.489,4.563-1.332V42.124z M25.448,29.788c0,1.26-0.512,2.4-1.337,3.226
	c-0.825,0.825-1.966,1.336-3.226,1.336s-2.4-0.511-3.226-1.336c-0.826-0.826-1.337-1.966-1.337-3.226s0.511-2.4,1.337-3.226
	c0.825-0.825,1.966-1.336,3.226-1.336s2.4,0.511,3.226,1.336C24.937,27.388,25.448,28.528,25.448,29.788"/>
</svg>
