<?xml version="1.0" encoding="UTF-8" standalone="no"?>
<svg width="89px" height="37px" viewBox="0 0 89 37" version="1.1" xmlns="http://www.w3.org/2000/svg" xmlns:xlink="http://www.w3.org/1999/xlink" xmlns:sketch="http://www.bohemiancoding.com/sketch/ns">
    <!-- Generator: Sketch 3.1.1 (8761) - http://www.bohemiancoding.com/sketch -->
    <title>Slice 2</title>
    <desc>Created with Sketch.</desc>
    <defs></defs>
    <g id="Page-1" stroke="none" stroke-width="1" fill="none" fill-rule="evenodd" sketch:type="MSPage">
        <path d="M88,19 L89.16,19 L89.16,36.38 L88,36.38 L88,19 Z" id="Fill-1452" fill="#ffffff" sketch:type="MSShapeGroup"></path>
        <path d="M5.214,18.379 L6.371,18.379 L6.371,1.29 L11.586,1.29 L11.586,1 L0,1 L0,1.29 L5.214,1.29 L5.214,18.379" id="Fill-1453" fill="#ffffff" sketch:type="MSShapeGroup"></path>
        <path d="M12,1 L13.157,1 L13.157,18.379 L12,18.379 L12,1 Z" id="Fill-1454" fill="#ffffff" sketch:type="MSShapeGroup"></path>
        <path d="M47.581,19 L47,19 L47,36.38 L55.109,36.38 L55.109,36.092 L48.158,36.092 L48.158,25.517 L53.952,25.517 L53.952,25.229 L48.158,25.229 L48.158,19.291 L55.109,19.291 L55.109,19 L47.581,19" id="Fill-1455" fill="#ffffff" sketch:type="MSShapeGroup"></path>
        <path d="M58.161,19 L57,19 L57,36.38 L64.533,36.38 L64.533,36.092 L58.161,36.092 L58.161,19" id="Fill-1456" fill="#ffffff" sketch:type="MSShapeGroup"></path>
        <path d="M37,19 L37,36.669 C41.873,36.669 45.835,32.702 45.835,27.835 C45.835,22.961 41.873,19 37,19 M38.161,36.299 L38.161,19.367 C42.326,19.938 45.546,23.516 45.546,27.835 C45.546,32.156 42.326,35.732 38.161,36.299" id="Fill-1457" fill="#ffffff" sketch:type="MSShapeGroup"></path>
        <path d="M15.289,3.746 L24.028,18.386 L24.041,18.386 L24.041,1.007 L23.752,1.007 L23.752,15.666 L15,1 L15,18.386 L15.289,18.386 L15.289,3.746" id="Fill-1458" fill="#ffffff" sketch:type="MSShapeGroup"></path>
        <path d="M34.752,33.666 L26,19 L26,36.38 L26.288,36.38 L26.288,21.746 L35.024,36.387 L35.041,36.387 L35.041,19.006 L34.752,19.006 L34.752,33.666" id="Fill-1459" fill="#ffffff" sketch:type="MSShapeGroup"></path>
        <path d="M25.335,17.421 L28.014,12.932 L34.235,12.932 L34.235,17.421 L35.399,17.421 L35.399,0 L25,17.421 L25.335,17.421 L25.335,17.421 Z M34.235,12.642 L28.191,12.642 L34.235,2.505 L34.235,12.642 L34.235,12.642 Z" id="Fill-1460" fill="#ffffff" sketch:type="MSShapeGroup"></path>
        <path d="M86.224,19 L85.887,19 L79.158,30.271 L79.158,19 L78,19 L78,36.38 L79.158,36.38 L79.158,30.838 L80.643,28.352 L85.995,36.38 L87.385,36.38 L81.298,27.251 L86.224,19" id="Fill-1461" fill="#ffffff" sketch:type="MSShapeGroup"></path>
        <path d="M14.237,36.154 L8.298,27.251 L13.224,19 L12.886,19 L6.157,30.271 L6.157,19 L5,19 L5,36.38 L6.157,36.38 L6.157,30.838 L7.643,28.352 L12.994,36.38 L14.437,36.38 L17.165,31.808 L17.165,31.89 L23.314,31.89 L23.314,36.38 L24.472,36.38 L24.472,19 L14.237,36.154 L14.237,36.154 Z M23.314,31.6 L17.289,31.6 L23.314,21.501 L23.314,31.6 L23.314,31.6 Z" id="Fill-1462" fill="#ffffff" sketch:type="MSShapeGroup"></path>
        <path d="M66,36.38 L66.336,36.38 L69.064,31.808 L69.064,31.89 L75.212,31.89 L75.212,36.38 L76.37,36.38 L76.37,19 L66,36.38 L66,36.38 Z M75.212,31.6 L69.188,31.6 L75.212,21.501 L75.212,31.6 L75.212,31.6 Z" id="Fill-1463" fill="#ffffff" sketch:type="MSShapeGroup"></path>
    </g>
</svg>