<?xml version="1.0" encoding="UTF-8" standalone="no"?>
<svg width="118px" height="42px" viewBox="0 0 118 42" version="1.1" xmlns="http://www.w3.org/2000/svg" xmlns:xlink="http://www.w3.org/1999/xlink" xmlns:sketch="http://www.bohemiancoding.com/sketch/ns">
    <!-- Generator: Sketch 3.1.1 (8761) - http://www.bohemiancoding.com/sketch -->
    <title>Slice 2</title>
    <desc>Created with Sketch.</desc>
    <defs>
        <path id="path-1" d="M0,0.415 L118.23,0.415 L118.23,41.94 L0,41.94"></path>
    </defs>
    <g id="Page-1" stroke="none" stroke-width="1" fill="none" fill-rule="evenodd" sketch:type="MSPage">
        <g id="Tinatin-logo" sketch:type="MSLayerGroup">
            <path d="M113.316,5.286 L110.947,12.807 L108.568,13.004 C109.689,9.36 110.729,6.014 110.928,5.472 L106.012,5.875 L100.408,23.664 L105.42,23.26 C105.42,23.26 106.736,18.952 108.088,14.563 L110.783,13.331 L107.713,23.077 L112.725,22.672 C112.725,22.672 117.771,6.153 118.23,4.881 L113.316,5.286" id="Fill-1" fill="#FFFFFF" sketch:type="MSShapeGroup"></path>
            <path d="M62.121,16.563 C59.985,23.184 59.469,25.219 58.322,25.312 C57.56,25.369 57.299,24.928 57.437,23.617 C57.727,20.886 60.731,11.221 63.705,10.981 C63.848,10.987 63.82,10.921 63.856,10.987 L62.121,16.563 L62.121,16.563 Z M69.463,8.684 C64.85,9.006 65.682,8.609 64.195,8.728 C57.402,9.275 52.869,19.066 52.313,24.301 C51.982,27.416 53.461,28.068 55.093,27.852 C56.781,27.627 58.738,26.662 59.886,24.014 L60.055,23.943 L59.44,26.967 L64.365,26.572 C64.852,23.973 65.619,20.709 66.563,17.771 L69.463,8.684 L69.463,8.684 Z" id="Fill-2" fill="#FFFFFF" sketch:type="MSShapeGroup"></path>
            <path d="M89.488,9.667 C89.703,7.665 89.043,6.726 86.961,6.895 C85.477,7.014 83.691,7.764 82.41,10.19 L82.172,10.79 C82.242,10.518 82.268,10.287 82.293,10.055 C82.49,8.169 81.912,7.3 79.83,7.467 C78.258,7.595 76.496,8.423 75.279,10.776 L75.039,11.364 L75.992,8.312 L71.279,8.692 L65.689,26.465 L70.699,26.061 L71.789,22.538 C74.605,13.458 75.092,10.064 76.703,9.932 C77.172,9.895 77.406,10.067 77.316,10.914 C77.244,11.606 76.959,12.698 76.389,14.499 L72.822,25.889 L77.832,25.486 L78.924,21.963 C81.738,12.885 82.225,9.489 83.84,9.358 C84.305,9.321 84.541,9.493 84.449,10.338 C84.377,11.033 84.094,12.125 83.521,13.922 L79.957,25.315 L84.969,24.91 L88.588,13.4 C89.086,11.873 89.385,10.667 89.488,9.667" id="Fill-3" fill="#FFFFFF" sketch:type="MSShapeGroup"></path>
            <path d="M28.355,7.939 C28.604,5.942 27.607,4.403 25.527,4.572 C24.042,4.692 22.573,5.866 21.617,7.476 L21.448,7.491 C21.519,7.217 21.638,6.765 21.693,6.54 C22.067,5.001 21.351,3.206 19.27,3.374 C17.698,3.501 16.065,4.686 14.848,7.034 L14.678,7.045 C14.678,7.045 14.828,6.54 14.925,5.881 C15.064,4.934 14.891,3.661 13.755,3.211 C12.69,2.792 11.763,2.463 10.537,2.02 C10.121,1.869 9.832,1.805 9.854,1.999 C11.666,2.544 10.677,5.012 9.569,8.813 C8.461,12.613 2.508,31.555 2.508,31.555 L7.519,31.152 L8.608,27.633 C11.423,18.551 14.731,5.746 16.344,5.615 C16.813,5.579 17.046,5.749 16.958,6.596 C16.884,7.29 16.599,8.381 16.03,10.18 L9.642,30.982 L14.652,30.578 L15.743,27.057 C18.124,19.374 20.114,11.004 21.537,8.151 C21.796,7.629 21.979,7.366 22.144,7.178 C22.856,6.352 23.622,6.895 23.532,7.741 C23.458,8.432 23.002,9.95 22.434,11.75 L16.775,30.408 L21.787,30.004 L27.499,11.227 C27.996,9.701 28.288,8.477 28.355,7.939" id="Fill-4" fill="#FFFFFF" sketch:type="MSShapeGroup"></path>
            <path d="M41.497,11.092 L36.488,11.495 L32.419,24.457 C31.933,26.096 31.356,27.25 30.439,27.627 C29.927,27.836 29.611,27.502 29.7,26.656 C29.773,25.965 30.059,24.873 30.627,23.073 L34.194,11.681 L29.183,12.085 L25.562,23.594 C25.049,25.238 24.75,26.484 24.652,27.406 C24.399,29.791 26.53,30.59 28.221,29.932 C29.058,29.607 31.005,28.6 32.028,26.201 L32.149,26.191 L31.533,29.219 L36.46,28.82 C36.944,26.225 37.711,22.958 38.656,20.02 L41.497,11.092" id="Fill-5" fill="#FFFFFF" sketch:type="MSShapeGroup"></path>
            <path d="M9.712,6.79 C9.712,6.79 10.291,4.993 10.386,3.691 C10.502,2.126 9.129,2.42 9.129,2.42 C9.129,2.42 8.867,2.268 6.897,4.005 C4.661,5.981 0,10.786 0,10.786 L0.957,15.746 L9.712,6.79" id="Fill-6" fill="#FFFFFF" sketch:type="MSShapeGroup"></path>
            <path d="M50.464,10.354 L48.095,17.873 L45.715,18.069 C46.837,14.426 47.877,11.083 48.073,10.538 L43.16,10.942 L37.556,28.731 L42.567,28.33 C42.567,28.33 43.884,24.018 45.233,19.63 L47.929,18.396 L44.859,28.143 L49.87,27.738 C49.87,27.738 54.916,11.218 55.378,9.95 L50.464,10.354" id="Fill-7" fill="#FFFFFF" sketch:type="MSShapeGroup"></path>
            <path d="M104.352,6.026 L99.34,6.428 L95.271,19.388 C94.785,21.032 94.209,22.186 93.291,22.559 C92.779,22.772 92.463,22.436 92.555,21.588 C92.625,20.895 92.912,19.805 93.48,18.003 L97.047,6.615 L92.037,7.018 L88.416,18.528 C87.904,20.17 87.604,21.415 87.506,22.339 C87.254,24.727 89.383,25.524 91.076,24.863 C91.912,24.537 93.859,23.533 94.881,21.135 L95.004,21.124 L94.385,24.148 L99.313,23.754 C99.799,21.159 100.566,17.892 101.51,14.954 L104.352,6.026" id="Fill-8" fill="#FFFFFF" sketch:type="MSShapeGroup"></path>
            <path d="M83.76,5.655 C87.543,4.95 90.68,3.465 90.68,3.465 L88.467,0.415 C88.467,0.415 84.211,3.328 79.652,4.511 C76.803,5.25 74.924,5.864 71.562,6.14 C71.426,6.361 71.887,6.821 71.887,6.821 C71.887,6.821 78.217,6.69 83.76,5.655" id="Fill-9" fill="#FFFFFF" sketch:type="MSShapeGroup"></path>
            <path d="M39.908,38.375 C39.841,38.625 39.687,38.756 39.651,38.791 C39.504,38.904 39.214,38.951 39.102,38.957 L37.88,39.049 L38.153,38.055 L39.51,37.945 C39.646,37.938 39.792,37.93 39.875,38.027 C39.906,38.07 39.966,38.168 39.908,38.375 L39.908,38.375 Z M39.448,37.148 L37.528,37.311 L36.36,41.564 L37.206,41.498 L37.653,39.867 L39.08,39.754 C39.303,39.736 39.798,39.686 40.193,39.328 C40.399,39.137 40.637,38.906 40.729,38.412 C40.829,37.895 40.606,37.59 40.477,37.457 C40.302,37.271 39.966,37.109 39.448,37.148 L39.448,37.148 Z" id="Fill-10" fill="#FFFFFF" sketch:type="MSShapeGroup"></path>
            <path d="M66.713,36.254 C66.645,36.502 66.494,36.631 66.455,36.666 C66.307,36.777 66.018,36.824 65.908,36.834 L64.684,36.926 L64.959,35.928 L66.316,35.822 C66.449,35.811 66.598,35.809 66.68,35.902 C66.709,35.947 66.771,36.045 66.713,36.254 L66.713,36.254 Z M66.254,35.025 L64.334,35.186 L63.164,39.44 L64.012,39.375 L64.459,37.744 L65.883,37.627 C66.105,37.609 66.602,37.563 66.996,37.199 C67.203,37.014 67.439,36.777 67.535,36.289 C67.635,35.77 67.41,35.465 67.283,35.332 C67.105,35.148 66.771,34.983 66.254,35.025 L66.254,35.025 Z" id="Fill-11" fill="#FFFFFF" sketch:type="MSShapeGroup"></path>
            <path d="M41.951,41.121 L45.265,40.858 L45.488,40.047 L43.08,40.24 L43.367,39.197 L44.69,39.092 L44.913,38.279 L43.59,38.385 L43.804,37.605 L46.063,37.428 L46.286,36.613 L43.121,36.865 L41.951,41.121" id="Fill-12" fill="#FFFFFF" sketch:type="MSShapeGroup"></path>
            <path d="M49.098,37.512 C49.407,37.234 49.993,36.906 50.536,37.141 C50.698,37.213 50.828,37.381 50.893,37.563 L51.653,37.07 C51.55,36.787 51.303,36.559 51.1,36.426 C50.873,36.27 50.54,36.186 50.119,36.221 C49.354,36.281 48.804,36.635 48.474,36.937 C47.97,37.395 47.652,38.01 47.49,38.596 C47.302,39.277 47.41,39.848 47.626,40.168 C47.922,40.6 48.426,40.717 48.968,40.676 C49.392,40.641 49.805,40.512 50.21,40.252 C50.54,40.039 50.895,39.705 51.185,39.322 L50.519,38.83 C50.331,39.111 50.105,39.324 49.896,39.475 C49.634,39.66 49.39,39.789 49.096,39.84 C48.679,39.91 48.469,39.705 48.374,39.557 C48.268,39.395 48.249,39.088 48.37,38.648 C48.508,38.141 48.856,37.725 49.098,37.512" id="Fill-13" fill="#FFFFFF" sketch:type="MSShapeGroup"></path>
            <path d="M52.903,36.885 L54.399,36.766 L53.452,40.207 L54.328,40.141 L55.273,36.693 L56.713,36.582 L56.936,35.771 L53.126,36.074 L52.903,36.885" id="Fill-14" fill="#FFFFFF" sketch:type="MSShapeGroup"></path>
            <path d="M60.833,37.469 C60.559,38.273 59.838,38.992 59.134,39.049 C58.436,39.102 58.148,38.568 58.414,37.746 C58.68,36.926 59.356,36.332 60.039,36.279 C60.744,36.223 61.111,36.658 60.833,37.469 L60.833,37.469 Z M60.203,35.422 C58.972,35.479 57.846,36.449 57.558,37.807 C57.291,39.062 57.839,39.963 59.006,39.871 C60.18,39.777 61.332,38.771 61.685,37.484 C62.037,36.201 61.38,35.371 60.203,35.422 L60.203,35.422 Z" id="Fill-15" fill="#FFFFFF" sketch:type="MSShapeGroup"></path>
            <path d="M70.25,37.115 L71.086,35.867 L71.303,37.033 L70.25,37.115 L70.25,37.115 Z M71.018,34.664 L67.916,39.074 L68.904,38.986 L69.662,37.896 L71.453,37.754 L71.646,38.766 L72.508,38.701 L71.73,34.6 L71.018,34.664 L71.018,34.664 Z" id="Fill-16" fill="#FFFFFF" sketch:type="MSShapeGroup"></path>
            <g id="Group-20">
                <mask id="mask-2" sketch:name="Clip 18" fill="white">
                    <use xlink:href="#path-1"></use>
                </mask>
                <g id="Clip-18"></g>
                <path d="M77.984,34.102 L77.539,35.713 L75.822,35.846 L76.266,34.236 L75.406,34.307 L74.236,38.562 L75.096,38.492 L75.639,36.541 L77.357,36.408 L76.816,38.358 L77.672,38.287 L78.842,34.033 L77.984,34.102" id="Fill-17" fill="#FFFFFF" sketch:type="MSShapeGroup" mask="url(#mask-2)"></path>
                <path d="M33.601,39.238 L5.697,41.483 L5.727,41.852 L5.738,42 L5.888,41.988 L33.643,39.752 L33.613,39.387 L33.601,39.238" id="Fill-19" fill="#FFFFFF" sketch:type="MSShapeGroup" mask="url(#mask-2)"></path>
            </g>
            <path d="M108.754,33.506 L108.742,33.358 L80.838,35.604 L80.867,35.971 L80.879,36.119 L81.029,36.108 L108.783,33.873 L108.754,33.506" id="Fill-21" fill="#FFFFFF" sketch:type="MSShapeGroup"></path>
        </g>
    </g>
</svg>