<?xml version="1.0" encoding="UTF-8" standalone="no"?>
<svg width="81px" height="48px" viewBox="0 0 81 48" version="1.1" xmlns="http://www.w3.org/2000/svg" xmlns:xlink="http://www.w3.org/1999/xlink" xmlns:sketch="http://www.bohemiancoding.com/sketch/ns">
    <!-- Generator: Sketch 3.1.1 (8761) - http://www.bohemiancoding.com/sketch -->
    <title>Slice 2</title>
    <desc>Created with Sketch.</desc>
    <defs></defs>
    <g id="Page-1" stroke="none" stroke-width="1" fill="none" fill-rule="evenodd" sketch:type="MSPage">
        <path d="M17,27.316 C17,29.147 18.484,30.631 20.316,30.631 C22.147,30.631 23.631,29.147 23.631,27.316 C23.631,25.485 22.147,24 20.316,24 C18.484,24 17,25.485 17,27.316" id="Fill-1" fill="#FFFFFF" sketch:type="MSShapeGroup"></path>
        <path d="M57,27.316 C57,29.147 58.484,30.631 60.315,30.631 C62.146,30.631 63.631,29.147 63.631,27.316 C63.631,25.485 62.146,24 60.315,24 C58.484,24 57,25.485 57,27.316" id="Fill-2" fill="#FFFFFF" sketch:type="MSShapeGroup"></path>
        <path d="M15.988,32.589 C14.706,31.307 14,29.602 14,27.789 C14,25.975 14.706,24.271 15.988,22.988 C17.27,21.706 18.975,21 20.789,21 C24.532,21 27.577,24.046 27.577,27.789 C27.577,31.532 24.532,34.577 20.789,34.577 C18.975,34.577 17.27,33.871 15.988,32.589 L15.988,32.589 Z M13.867,20.867 C12.018,22.716 11,25.174 11,27.789 C11,30.403 12.018,32.861 13.867,34.71 C15.716,36.559 18.174,37.577 20.789,37.577 C26.186,37.577 30.577,33.186 30.577,27.789 C30.577,22.391 26.186,18 20.789,18 C18.174,18 15.716,19.018 13.867,20.867 L13.867,20.867 Z" id="Fill-3" fill="#FFFFFF" sketch:type="MSShapeGroup"></path>
        <path d="M55.988,32.589 C54.706,31.307 54,29.602 54,27.789 C54,25.975 54.706,24.271 55.988,22.988 C57.27,21.706 58.975,21 60.788,21 C64.532,21 67.577,24.046 67.577,27.789 C67.577,31.532 64.532,34.577 60.788,34.577 C58.975,34.577 57.27,33.871 55.988,32.589 L55.988,32.589 Z M53.867,20.867 C52.018,22.716 51,25.174 51,27.789 C51,30.403 52.018,32.861 53.867,34.71 C55.716,36.559 58.174,37.577 60.788,37.577 C66.186,37.577 70.577,33.186 70.577,27.789 C70.577,22.391 66.186,18 60.788,18 C58.174,18 55.716,19.018 53.867,20.867 L53.867,20.867 Z" id="Fill-4" fill="#FFFFFF" sketch:type="MSShapeGroup"></path>
        <path d="M60.295,43.586 C51.267,43.586 43.922,36.242 43.922,27.214 C43.922,18.186 51.267,10.841 60.295,10.841 C69.323,10.841 76.667,18.186 76.667,27.214 C76.667,36.242 69.323,43.586 60.295,43.586 L60.295,43.586 Z M20.373,43.586 C11.345,43.586 4,36.242 4,27.214 C4,18.186 11.345,10.841 20.373,10.841 C29.4,10.841 36.745,18.186 36.745,27.214 C36.745,36.242 29.4,43.586 20.373,43.586 L20.373,43.586 Z M76.069,14.342 C76.837,12.054 78.012,9.359 79.635,7.736 L66.257,7.736 C66.036,7.668 65.805,7.621 65.58,7.561 C64.852,6.421 59.877,0 39.989,0 C18.163,0 14.294,7.736 14.294,7.736 L0.342,7.736 C2.122,9.515 3.359,12.579 4.116,14.987 C1.544,18.397 0,22.623 0,27.214 C0,38.447 9.139,47.586 20.373,47.586 C26.6,47.586 32.176,44.771 35.915,40.353 L40.541,46.83 L44.533,40.101 C48.271,44.666 53.948,47.586 60.295,47.586 C71.528,47.586 80.667,38.447 80.667,27.214 C80.667,22.335 78.94,17.853 76.069,14.342 Z M41.582,2 C55.535,2 60.784,7.802 60.784,7.802 C60.784,7.802 45.865,5.316 40.892,23.688 C35.919,5.316 21,7.802 21,7.802 C21,7.802 26.249,2 40.202,2 L41.582,2 Z" id="Fill-5" fill="#FFFFFF" sketch:type="MSShapeGroup"></path>
    </g>
</svg>